#N canvas 691 14 665 691 10;
#X declare -lib mrpeach;
#X floatatom 248 -46 5 0 0 0 - - -, f 5;
#X obj 292 22 mtof;
#X obj 290 77 *~ 0.02;
#X floatatom 349 23 5 0 0 0 - - -, f 5;
#X obj 345 60 line;
#X floatatom 345 79 5 0 0 0 - - -, f 5;
#X obj 290 46 phasor~;
#X obj 345 5 randomF 0.04;
#X obj 289 103 throw~ notas;
#X obj 346 -38 tgl 15 0 empty empty empty 17 7 0 10 -262144 -1 -1 0
1;
#X obj 345 40 pack f 1000;
#X obj 245 -26 sel 0 1 2 3;
#X obj 894 14 counter 3;
#X floatatom 859 13 5 0 0 0 - - -, f 5;
#X obj 671 8 tgl 15 0 empty empty empty 17 7 0 10 -262144 -1 -1 0 1
;
#X obj 459 -46 vradio 15 1 0 4 empty empty velocidad\ del\ Color 0
-8 0 10 -4032 -1 -1 0;
#X obj 929 -15 metro \$1;
#X obj 717 -21 sel 0 1 2 3;
#X obj 649 9 bng 15 250 50 0 empty empty empty 17 7 0 10 -262144 -1
-1;
#X msg 722 7 1500;
#X msg 750 7 750;
#X msg 785 9 375;
#X msg 693 7 3000;
#X floatatom 248 137 5 0 0 0 - - -, f 5;
#X obj 292 205 mtof;
#X obj 290 260 *~ 0.02;
#X floatatom 349 206 5 0 0 0 - - -, f 5;
#X obj 345 243 line;
#X floatatom 345 262 5 0 0 0 - - -, f 5;
#X obj 290 229 phasor~;
#X obj 345 188 randomF 0.04;
#X obj 289 286 throw~ notas;
#X obj 346 145 tgl 15 0 empty empty empty 17 7 0 10 -262144 -1 -1 0
1;
#X obj 345 223 pack f 1000;
#X obj 245 157 sel 0 1 2 3;
#X floatatom 246 318 5 0 0 0 - - -, f 5;
#X obj 290 386 mtof;
#X obj 288 441 *~ 0.02;
#X floatatom 347 387 5 0 0 0 - - -, f 5;
#X obj 343 424 line;
#X floatatom 343 443 5 0 0 0 - - -, f 5;
#X obj 288 410 phasor~;
#X obj 343 369 randomF 0.04;
#X obj 287 467 throw~ notas;
#X obj 344 326 tgl 15 0 empty empty empty 17 7 0 10 -262144 -1 -1 0
1;
#X obj 343 404 pack f 1000;
#X obj 243 338 sel 0 1 2 3;
#X floatatom 273 501 5 0 0 0 - - -, f 5;
#X obj 317 569 mtof;
#X obj 315 624 *~ 0.02;
#X floatatom 374 570 5 0 0 0 - - -, f 5;
#X obj 370 607 line;
#X floatatom 370 626 5 0 0 0 - - -, f 5;
#X obj 315 593 phasor~;
#X obj 370 552 randomF 0.04;
#X obj 314 650 throw~ notas;
#X obj 371 509 tgl 15 0 empty empty empty 17 7 0 10 -262144 -1 -1 0
1;
#X obj 370 587 pack f 1000;
#X obj 270 521 sel 0 1 2 3;
#X obj 730 236 / 4;
#X obj 765 237 / 4;
#X obj 767 285 / 4;
#X obj 801 286 / 4;
#X obj 692 309 / 4;
#X obj 732 308 / 4;
#X obj 730 260 / 2;
#X obj 799 262 / 2;
#X obj 692 285 / 3;
#X obj 731 284 / 6;
#X obj 767 309 / 3;
#X obj 801 310 / 6;
#X obj 346 -18 metro \$1;
#X obj 346 165 metro \$1;
#X obj 343 346 metro \$1;
#X obj 371 529 metro \$1;
#X obj 286 -46 random 4;
#X obj 286 137 random 4;
#X obj 284 318 random 4;
#X obj 311 501 random 4;
#X obj 725 436 catch~ notas;
#X obj 723 472 dac~;
#X msg 222 -2 50;
#X msg 254 -2 53;
#X msg 284 0 55;
#X msg 315 2 57;
#X msg 222 181 60;
#X msg 254 181 62;
#X msg 284 183 65;
#X msg 315 184 67;
#X msg 220 362 69;
#X msg 252 362 72;
#X msg 282 364 74;
#X msg 313 365 77;
#X msg 247 545 79;
#X msg 279 545 81;
#X msg 309 548 84;
#X msg 340 548 86;
#X obj 765 261 / 3;
#X obj 690 261 / 6;
#X obj 850 186 mtof;
#X obj 900 314 throw~ acordes;
#X obj 850 208 osc~;
#X obj 905 185 mtof;
#X obj 905 207 osc~;
#X obj 956 186 mtof;
#X obj 956 208 osc~;
#X obj 1011 185 mtof;
#X obj 1011 207 osc~;
#X obj 856 61 bng 15 250 50 0 empty empty empty 17 7 0 10 -262144 -1
-1;
#X obj 909 64 bng 15 250 50 0 empty empty empty 17 7 0 10 -262144 -1
-1;
#X obj 966 64 bng 15 250 50 0 empty empty empty 17 7 0 10 -262144 -1
-1;
#X obj 1022 64 bng 15 250 50 0 empty empty empty 17 7 0 10 -262144
-1 -1;
#X obj 958 35 sel 0 1 2 3;
#X obj 850 244 *~ 0.05;
#X obj 905 243 *~ 0.04;
#X obj 1011 244 *~ 0.03;
#X obj 956 244 *~ 0.03.5;
#X obj 628 437 catch~ acordes;
#X obj 799 238 / 3;
#X obj 690 237 / 2;
#X text 578 556 melodia posicion;
#X text 576 583 volumen melodia tamaño;
#X obj 1145 547 udpsend;
#X msg 1155 526 disconnect;
#X obj 1140 481 packOSC;
#X obj 1145 567 tgl 15 0 empty empty 1=connected 20 8 0 8 -4034 -257985
-1 0 1;
#X msg 476 656 0.04;
#X msg 514 656 0;
#X obj 543 626 loadbang;
#X floatatom 519 711 5 0 0 0 - - -, f 5;
#X obj 479 686 autoscale 0 300;
#X msg 231 218 100;
#X obj 1183 352 import mrpeach;
#X obj 1277 353 declare -lib mrpeach;
#X obj 496 627 t b b;
#X msg 1148 506 connect localhost 9997;
#X msg 542 655 100;
#X msg 573 655 10;
#X msg 608 657 0.04;
#X msg 646 657 0;
#X obj 675 627 loadbang;
#X floatatom 651 712 5 0 0 0 - - -, f 5;
#X obj 611 687 autoscale 0 300;
#X obj 628 628 t b b;
#X msg 674 656 100;
#X msg 705 656 10;
#X msg 737 657 0.04;
#X msg 775 657 0;
#X obj 804 627 loadbang;
#X floatatom 780 712 5 0 0 0 - - -, f 5;
#X obj 740 687 autoscale 0 300;
#X obj 757 628 t b b;
#X msg 803 656 100;
#X msg 834 656 10;
#X msg 862 656 0.04;
#X msg 900 656 0;
#X obj 929 626 loadbang;
#X floatatom 905 711 5 0 0 0 - - -, f 5;
#X obj 865 686 autoscale 0 300;
#X obj 882 627 t b b;
#X msg 928 655 100;
#X msg 959 655 10;
#X obj 484 710 s t1;
#X obj 616 711 s t2;
#X obj 745 711 s t3;
#X obj 870 710 s t4;
#X msg 241 228 200;
#X msg 251 238 300;
#X msg 261 248 400;
#X msg 252 584 100;
#X msg 262 594 200;
#X msg 272 604 300;
#X msg 282 614 400;
#X msg 228 403 100;
#X msg 238 413 200;
#X msg 248 423 300;
#X msg 258 433 400;
#X obj 236 86 s x1;
#X obj 233 266 s x2;
#X obj 230 452 s x3;
#X obj 254 632 s x4;
#X obj 933 385 r x1;
#X obj 994 391 r x2;
#X obj 1069 390 r x3;
#X obj 1150 391 r x4;
#X obj 1242 387 r t1;
#X obj 1323 388 r t2;
#X obj 1417 389 r t3;
#X obj 1431 457 r t4;
#X msg 1247 417 send /tam1 \$1;
#X msg 1329 417 send /tam2 \$1;
#X msg 1423 418 send /tam3 \$1;
#X msg 1437 486 send /tam4 \$1;
#X floatatom 895 363 5 0 0 0 - - -, f 5;
#X floatatom 974 372 5 0 0 0 - - -, f 5;
#X floatatom 1052 365 5 0 0 0 - - -, f 5;
#X floatatom 1131 368 5 0 0 0 - - -, f 5;
#X obj 866 388 bng 15 250 50 0 empty empty empty 17 7 0 10 -262144
-1 -1;
#X msg 234 38 100;
#X msg 244 48 200;
#X msg 254 58 300;
#X msg 264 68 400;
#X floatatom 1199 377 5 0 0 0 - - -, f 5;
#X msg 910 420 send /pox1 \$1;
#X msg 993 420 send /pox2 \$1;
#X msg 1074 420 send /pox3 \$1;
#X msg 1156 420 send /pox4 \$1;
#X obj 511 57 dsp~;
#X obj 506 25 tgl 15 0 empty empty empty 17 7 0 10 -262144 -1 -1 0
1;
#X msg 853 124 38;
#X msg 860 105 41;
#X msg 913 106 41;
#X msg 870 83 45;
#X msg 920 82 45;
#X msg 1029 90 45;
#X msg 899 129 40;
#X msg 952 129 40;
#X msg 1012 132 40;
#X msg 963 110 43;
#X msg 1021 110 43;
#X msg 878 61 48;
#X msg 931 62 48;
#X msg 1045 68 48;
#X msg 988 68 50;
#X msg 975 88 47;
#X obj 1135 224 s fo1;
#X msg 1136 111 32;
#X msg 1139 144 125;
#X msg 1142 177 252;
#X msg 1172 111 242;
#X msg 1175 144 129;
#X msg 1178 177 229;
#X msg 1209 111 89;
#X msg 1212 144 125;
#X msg 1215 177 51;
#X obj 1132 70 bng 15 250 50 0 empty empty empty 17 7 0 10 -262144
-1 -1;
#X obj 1169 71 bng 15 250 50 0 empty empty empty 17 7 0 10 -262144
-1 -1;
#X obj 1199 71 bng 15 250 50 0 empty empty empty 17 7 0 10 -262144
-1 -1;
#X obj 1171 224 s fo2;
#X obj 1208 224 s fo3;
#X obj 911 457 r fo1;
#X msg 917 486 send /fo1 \$1;
#X obj 1006 463 r fo2;
#X msg 1008 494 send /fo2 \$1;
#X obj 1018 524 r fo3;
#X msg 1017 551 send /fo3 \$1;
#X obj 1239 71 bng 15 250 50 0 empty empty empty 17 7 0 10 -262144
-1 -1;
#X msg 1255 177 89;
#X msg 1252 144 51;
#X msg 1249 111 125;
#X obj 1248 224 s fo4;
#X obj 1043 576 r fo4;
#X msg 1042 603 send /fo4 \$1;
#X connect 1 0 6 0;
#X connect 2 0 8 0;
#X connect 4 0 2 1;
#X connect 4 0 5 0;
#X connect 4 0 130 0;
#X connect 6 0 2 0;
#X connect 7 0 3 0;
#X connect 7 0 10 0;
#X connect 9 0 71 0;
#X connect 10 0 4 0;
#X connect 11 0 81 0;
#X connect 11 0 198 0;
#X connect 11 1 82 0;
#X connect 11 1 199 0;
#X connect 11 2 83 0;
#X connect 11 2 200 0;
#X connect 11 3 84 0;
#X connect 11 3 201 0;
#X connect 12 0 13 0;
#X connect 12 0 112 0;
#X connect 14 0 16 0;
#X connect 14 0 71 0;
#X connect 14 0 72 0;
#X connect 14 0 73 0;
#X connect 14 0 74 0;
#X connect 15 0 17 0;
#X connect 15 0 18 0;
#X connect 16 0 12 0;
#X connect 17 0 22 0;
#X connect 17 1 19 0;
#X connect 17 2 20 0;
#X connect 17 3 21 0;
#X connect 18 0 16 0;
#X connect 18 0 12 3;
#X connect 18 0 71 0;
#X connect 18 0 72 0;
#X connect 18 0 73 0;
#X connect 18 0 74 0;
#X connect 19 0 16 1;
#X connect 19 0 66 0;
#X connect 19 0 65 0;
#X connect 19 0 97 0;
#X connect 19 0 98 0;
#X connect 20 0 16 1;
#X connect 20 0 62 0;
#X connect 20 0 61 0;
#X connect 20 0 67 0;
#X connect 20 0 68 0;
#X connect 21 0 16 1;
#X connect 21 0 63 0;
#X connect 21 0 64 0;
#X connect 21 0 69 0;
#X connect 21 0 70 0;
#X connect 22 0 16 1;
#X connect 22 0 60 0;
#X connect 22 0 59 0;
#X connect 22 0 118 0;
#X connect 22 0 119 0;
#X connect 24 0 29 0;
#X connect 25 0 31 0;
#X connect 27 0 25 1;
#X connect 27 0 28 0;
#X connect 27 0 142 0;
#X connect 29 0 25 0;
#X connect 30 0 26 0;
#X connect 30 0 33 0;
#X connect 32 0 72 0;
#X connect 33 0 27 0;
#X connect 34 0 85 0;
#X connect 34 0 131 0;
#X connect 34 1 86 0;
#X connect 34 1 166 0;
#X connect 34 2 87 0;
#X connect 34 2 167 0;
#X connect 34 3 88 0;
#X connect 34 3 168 0;
#X connect 36 0 41 0;
#X connect 37 0 43 0;
#X connect 39 0 37 1;
#X connect 39 0 40 0;
#X connect 39 0 150 0;
#X connect 41 0 37 0;
#X connect 42 0 38 0;
#X connect 42 0 45 0;
#X connect 44 0 73 0;
#X connect 45 0 39 0;
#X connect 46 0 89 0;
#X connect 46 0 173 0;
#X connect 46 1 90 0;
#X connect 46 1 174 0;
#X connect 46 2 91 0;
#X connect 46 2 175 0;
#X connect 46 3 92 0;
#X connect 46 3 176 0;
#X connect 48 0 53 0;
#X connect 49 0 55 0;
#X connect 51 0 49 1;
#X connect 51 0 52 0;
#X connect 51 0 158 0;
#X connect 53 0 49 0;
#X connect 54 0 50 0;
#X connect 54 0 57 0;
#X connect 56 0 74 0;
#X connect 57 0 51 0;
#X connect 58 0 93 0;
#X connect 58 0 169 0;
#X connect 58 1 94 0;
#X connect 58 1 170 0;
#X connect 58 2 95 0;
#X connect 58 2 171 0;
#X connect 58 3 96 0;
#X connect 58 3 172 0;
#X connect 59 0 72 1;
#X connect 60 0 73 1;
#X connect 61 0 73 1;
#X connect 62 0 74 1;
#X connect 63 0 71 1;
#X connect 64 0 72 1;
#X connect 65 0 72 1;
#X connect 66 0 74 1;
#X connect 67 0 71 1;
#X connect 68 0 72 1;
#X connect 69 0 73 1;
#X connect 70 0 74 1;
#X connect 71 0 7 0;
#X connect 71 0 75 0;
#X connect 72 0 30 0;
#X connect 72 0 76 0;
#X connect 73 0 42 0;
#X connect 73 0 77 0;
#X connect 74 0 54 0;
#X connect 74 0 78 0;
#X connect 75 0 0 0;
#X connect 75 0 11 0;
#X connect 76 0 23 0;
#X connect 76 0 34 0;
#X connect 77 0 35 0;
#X connect 77 0 46 0;
#X connect 78 0 47 0;
#X connect 78 0 58 0;
#X connect 79 0 80 0;
#X connect 79 0 80 1;
#X connect 81 0 1 0;
#X connect 82 0 1 0;
#X connect 83 0 1 0;
#X connect 84 0 1 0;
#X connect 85 0 24 0;
#X connect 86 0 24 0;
#X connect 87 0 24 0;
#X connect 88 0 24 0;
#X connect 89 0 36 0;
#X connect 90 0 36 0;
#X connect 91 0 36 0;
#X connect 92 0 36 0;
#X connect 93 0 48 0;
#X connect 94 0 48 0;
#X connect 95 0 48 0;
#X connect 96 0 48 0;
#X connect 97 0 73 1;
#X connect 98 0 71 1;
#X connect 99 0 101 0;
#X connect 101 0 113 0;
#X connect 102 0 103 0;
#X connect 103 0 114 0;
#X connect 104 0 105 0;
#X connect 105 0 116 0;
#X connect 106 0 107 0;
#X connect 107 0 115 0;
#X connect 108 0 210 0;
#X connect 108 0 220 0;
#X connect 108 0 212 0;
#X connect 108 0 209 0;
#X connect 109 0 215 0;
#X connect 109 0 221 0;
#X connect 109 0 213 0;
#X connect 109 0 211 0;
#X connect 110 0 224 0;
#X connect 110 0 218 0;
#X connect 110 0 216 0;
#X connect 110 0 223 0;
#X connect 111 0 214 0;
#X connect 111 0 219 0;
#X connect 111 0 217 0;
#X connect 111 0 222 0;
#X connect 112 0 108 0;
#X connect 112 0 235 0;
#X connect 112 1 109 0;
#X connect 112 1 236 0;
#X connect 112 2 110 0;
#X connect 112 2 237 0;
#X connect 112 3 111 0;
#X connect 112 3 246 0;
#X connect 113 0 100 0;
#X connect 114 0 100 0;
#X connect 115 0 100 0;
#X connect 116 0 100 0;
#X connect 117 0 80 0;
#X connect 117 0 80 1;
#X connect 118 0 74 1;
#X connect 119 0 71 1;
#X connect 122 0 125 0;
#X connect 123 0 122 0;
#X connect 124 0 122 0;
#X connect 126 0 130 0;
#X connect 127 0 130 0;
#X connect 128 0 137 0;
#X connect 128 0 136 0;
#X connect 128 0 134 0;
#X connect 130 0 129 0;
#X connect 130 0 162 0;
#X connect 131 0 178 0;
#X connect 134 0 126 0;
#X connect 134 1 127 0;
#X connect 135 0 122 0;
#X connect 136 0 130 2;
#X connect 137 0 130 1;
#X connect 138 0 142 0;
#X connect 139 0 142 0;
#X connect 140 0 145 0;
#X connect 140 0 144 0;
#X connect 140 0 143 0;
#X connect 142 0 141 0;
#X connect 142 0 163 0;
#X connect 143 0 138 0;
#X connect 143 1 139 0;
#X connect 144 0 142 2;
#X connect 145 0 142 1;
#X connect 146 0 150 0;
#X connect 147 0 150 0;
#X connect 148 0 153 0;
#X connect 148 0 152 0;
#X connect 148 0 151 0;
#X connect 150 0 149 0;
#X connect 150 0 164 0;
#X connect 151 0 146 0;
#X connect 151 1 147 0;
#X connect 152 0 150 2;
#X connect 153 0 150 1;
#X connect 154 0 158 0;
#X connect 155 0 158 0;
#X connect 156 0 161 0;
#X connect 156 0 160 0;
#X connect 156 0 159 0;
#X connect 158 0 157 0;
#X connect 158 0 165 0;
#X connect 159 0 154 0;
#X connect 159 1 155 0;
#X connect 160 0 158 2;
#X connect 161 0 158 1;
#X connect 166 0 178 0;
#X connect 167 0 178 0;
#X connect 168 0 178 0;
#X connect 169 0 180 0;
#X connect 170 0 180 0;
#X connect 171 0 180 0;
#X connect 172 0 180 0;
#X connect 173 0 179 0;
#X connect 174 0 179 0;
#X connect 175 0 179 0;
#X connect 176 0 179 0;
#X connect 181 0 193 0;
#X connect 181 0 203 0;
#X connect 182 0 204 0;
#X connect 182 0 194 0;
#X connect 183 0 205 0;
#X connect 183 0 195 0;
#X connect 184 0 206 0;
#X connect 184 0 196 0;
#X connect 185 0 189 0;
#X connect 185 0 202 0;
#X connect 186 0 190 0;
#X connect 187 0 191 0;
#X connect 188 0 192 0;
#X connect 189 0 124 0;
#X connect 190 0 124 0;
#X connect 191 0 124 0;
#X connect 192 0 124 0;
#X connect 198 0 177 0;
#X connect 199 0 177 0;
#X connect 200 0 177 0;
#X connect 201 0 177 0;
#X connect 203 0 124 0;
#X connect 204 0 124 0;
#X connect 205 0 124 0;
#X connect 206 0 124 0;
#X connect 208 0 207 0;
#X connect 209 0 99 0;
#X connect 210 0 102 0;
#X connect 211 0 102 0;
#X connect 212 0 104 0;
#X connect 213 0 104 0;
#X connect 214 0 104 0;
#X connect 215 0 99 0;
#X connect 216 0 99 0;
#X connect 217 0 99 0;
#X connect 218 0 102 0;
#X connect 219 0 102 0;
#X connect 220 0 106 0;
#X connect 221 0 106 0;
#X connect 222 0 106 0;
#X connect 223 0 106 0;
#X connect 224 0 104 0;
#X connect 226 0 225 0;
#X connect 227 0 225 0;
#X connect 228 0 225 0;
#X connect 229 0 238 0;
#X connect 230 0 238 0;
#X connect 231 0 238 0;
#X connect 232 0 239 0;
#X connect 233 0 239 0;
#X connect 234 0 239 0;
#X connect 235 0 226 0;
#X connect 235 0 232 0;
#X connect 235 0 229 0;
#X connect 236 0 227 0;
#X connect 236 0 233 0;
#X connect 236 0 230 0;
#X connect 237 0 228 0;
#X connect 237 0 234 0;
#X connect 237 0 231 0;
#X connect 240 0 241 0;
#X connect 241 0 124 0;
#X connect 242 0 243 0;
#X connect 243 0 124 0;
#X connect 244 0 245 0;
#X connect 245 0 124 0;
#X connect 246 0 247 0;
#X connect 246 0 249 0;
#X connect 246 0 248 0;
#X connect 247 0 250 0;
#X connect 248 0 250 0;
#X connect 249 0 250 0;
#X connect 251 0 252 0;
#X connect 252 0 124 0;
